<svg width="320" height="63" viewBox="0 0 320 63" fill="none" xmlns="http://www.w3.org/2000/svg">
<path d="M49.855 10.5676C49.0837 10.5676 48.3296 10.7826 47.6883 11.1853C47.0469 11.588 46.5471 12.1605 46.2519 12.8302C45.9567 13.4999 45.8795 14.2368 46.0299 14.9477C46.1804 15.6587 46.5519 16.3118 47.0973 16.8243C47.6427 17.3369 48.3376 17.686 49.0941 17.8274C49.8507 17.9688 50.6348 17.8962 51.3475 17.6188C52.0601 17.3414 52.6692 16.8717 53.0977 16.2689C53.5263 15.6662 53.755 14.9576 53.755 14.2327C53.755 13.2607 53.3441 12.3285 52.6127 11.6411C51.8813 10.9538 50.8893 10.5676 49.855 10.5676ZM64.805 17.9589C64.7418 15.4248 64.2368 12.9176 63.31 10.5371C62.4836 8.50033 61.1975 6.65602 59.54 5.13111C57.9307 3.56559 55.9636 2.36451 53.7875 1.61874C51.2611 0.72129 48.5903 0.235817 45.89 0.183254C42.445 -1.70669e-07 41.34 0 32.5 0C23.66 0 22.555 -1.70669e-07 19.11 0.183254C16.4097 0.235817 13.7389 0.72129 11.2125 1.61874C9.04045 2.37207 7.07504 3.57211 5.46 5.13111C3.79413 6.6435 2.51607 8.49211 1.7225 10.5371C0.767523 12.9113 0.250932 15.4213 0.195 17.9589C-1.81608e-07 21.1964 0 22.2348 0 30.5423C0 38.8498 -1.81608e-07 39.8883 0.195 43.1258C0.250932 45.6634 0.767523 48.1734 1.7225 50.5475C2.51607 52.5925 3.79413 54.4411 5.46 55.9535C7.07504 57.5125 9.04045 58.7126 11.2125 59.4659C13.7389 60.3634 16.4097 60.8488 19.11 60.9014C22.555 61.0846 23.66 61.0846 32.5 61.0846C41.34 61.0846 42.445 61.0846 45.89 60.9014C48.5903 60.8488 51.2611 60.3634 53.7875 59.4659C55.9636 58.7201 57.9307 57.5191 59.54 55.9535C61.2048 54.4343 62.4921 52.5884 63.31 50.5475C64.2368 48.1671 64.7418 45.6599 64.805 43.1258C64.805 39.8883 65 38.8498 65 30.5423C65 22.2348 65 21.1964 64.805 17.9589ZM58.955 42.7593C58.9313 44.698 58.5577 46.6189 57.85 48.4401C57.3311 49.7693 56.4976 50.9703 55.4125 51.9525C54.3584 52.9619 53.083 53.7436 51.675 54.2432C49.737 54.9082 47.693 55.2594 45.63 55.2816C42.38 55.4343 41.1775 55.4649 32.63 55.4649C24.0825 55.4649 22.88 55.4649 19.63 55.2816C17.4879 55.3193 15.3549 55.0093 13.325 54.3653C11.9788 53.8402 10.7619 53.0605 9.75 52.0747C8.67129 51.0935 7.84824 49.8915 7.345 48.5623C6.55153 46.7149 6.11144 44.7504 6.045 42.7593C6.045 39.705 5.85 38.575 5.85 30.5423C5.85 22.5097 5.85 21.3796 6.045 18.3254C6.05957 16.3434 6.44459 14.3792 7.1825 12.5224C7.75465 11.2332 8.63286 10.084 9.75 9.1627C10.7374 8.11255 11.9577 7.27853 13.325 6.71931C15.306 6.04751 17.394 5.69639 19.5 5.68087C22.75 5.68087 23.9525 5.49762 32.5 5.49762C41.0475 5.49762 42.25 5.49762 45.5 5.68087C47.563 5.70311 49.607 6.05424 51.545 6.71931C53.0219 7.23441 54.3475 8.07187 55.4125 9.1627C56.4775 10.1009 57.3097 11.2479 57.85 12.5224C58.5723 14.3822 58.9462 16.3456 58.955 18.3254C59.1175 21.3796 59.15 22.5097 59.15 30.5423C59.15 38.575 59.1175 39.705 58.955 42.7593ZM32.5 14.8741C29.2039 14.8801 25.9836 15.8042 23.2461 17.5295C20.5086 19.2548 18.3767 21.704 17.1198 24.5675C15.8629 27.431 15.5374 30.5804 16.1843 33.6177C16.8313 36.655 18.4218 39.444 20.7547 41.6322C23.0877 43.8204 26.0585 45.3096 29.2918 45.9117C32.5251 46.5138 35.8757 46.2017 38.9203 45.0149C41.9649 43.8281 44.5669 41.8199 46.3974 39.2439C48.228 36.668 49.205 33.6399 49.205 30.5423C49.2093 28.481 48.7799 26.4393 47.9415 24.5345C47.1031 22.6297 45.8723 20.8995 44.3198 19.4434C42.7673 17.9873 40.9238 16.8339 38.8953 16.0498C36.8668 15.2656 34.6934 14.8661 32.5 14.8741ZM32.5 40.7129C30.3595 40.7129 28.2671 40.1164 26.4873 38.9989C24.7076 37.8813 23.3204 36.2929 22.5013 34.4344C21.6822 32.576 21.4679 30.531 21.8855 28.5581C22.303 26.5852 23.3338 24.773 24.8473 23.3506C26.3609 21.9282 28.2893 20.9596 30.3886 20.5672C32.488 20.1747 34.664 20.3761 36.6416 21.1459C38.6191 21.9157 40.3094 23.2193 41.4986 24.8918C42.6878 26.5644 43.3225 28.5308 43.3225 30.5423C43.3225 31.8779 43.0426 33.2005 42.4987 34.4344C41.9548 35.6684 41.1576 36.7896 40.1527 37.734C39.1477 38.6784 37.9546 39.4276 36.6416 39.9387C35.3285 40.4498 33.9212 40.7129 32.5 40.7129Z" fill="white"/>
<path d="M117.5 1.0523e-07C111.072 1.0523e-07 104.789 1.79128 99.444 5.14731C94.0994 8.50334 89.9338 13.2734 87.4739 18.8543C85.0141 24.4352 84.3705 30.5762 85.6245 36.5008C86.8785 42.4255 89.9738 47.8676 94.519 52.139C99.0642 56.4104 104.855 59.3193 111.16 60.4978C117.464 61.6763 123.999 61.0714 129.937 58.7597C135.876 56.4481 140.952 52.5334 144.523 47.5107C148.094 42.4881 150 36.583 150 30.5423C150 26.5313 149.16 22.5596 147.527 18.8539C145.894 15.1482 143.5 11.7811 140.482 8.94489C137.464 6.10871 133.881 3.85899 129.938 2.32422C125.994 0.789441 121.768 -0.000332847 117.5 1.0523e-07ZM127.833 46.2792C127.712 46.5642 127.527 46.8215 127.291 47.0339C127.054 47.2462 126.773 47.4086 126.464 47.5103C126.156 47.612 125.828 47.6505 125.503 47.6233C125.177 47.5961 124.861 47.5039 124.577 47.3527L115.754 40.9102L110.092 45.8196C109.96 45.9108 109.807 45.9695 109.645 45.9903C109.483 46.0111 109.318 45.9933 109.165 45.9385L110.251 36.8111L110.286 36.837L110.308 36.6568C110.308 36.6568 126.184 23.073 126.831 22.4943C127.486 21.917 127.27 21.7918 127.27 21.7918C127.307 21.0877 126.095 21.7918 126.095 21.7918L105.059 34.5098L96.2987 31.706C96.2987 31.706 94.9532 31.2524 94.8264 30.2552C94.6932 29.2656 96.3425 28.7281 96.3425 28.7281L131.173 15.7247C131.173 15.7247 134.036 14.5258 134.036 16.5112L127.833 46.2792Z" fill="white"/>
<path d="M202.5 0C196.072 0 189.789 1.79128 184.444 5.14731C179.099 8.50334 174.934 13.2734 172.474 18.8543C170.014 24.4352 169.37 30.5762 170.624 36.5008C171.879 42.4255 174.974 47.8676 179.519 52.139C184.064 56.4104 189.855 59.3193 196.16 60.4978C202.464 61.6763 208.999 61.0714 214.937 58.7597C220.876 56.4481 225.952 52.5334 229.523 47.5107C233.094 42.4881 235 36.583 235 30.5423C235 26.5314 234.159 22.5598 232.526 18.8543C230.893 15.1487 228.499 11.7818 225.481 8.94564C222.463 6.10952 218.88 3.85979 214.937 2.3249C210.994 0.790001 206.768 0 202.5 0ZM202.5 54.9762C197.358 54.9762 192.331 53.5432 188.055 50.8583C183.78 48.1735 180.447 44.3575 178.479 39.8927C176.511 35.428 175.996 30.5152 177 25.7755C178.003 21.0358 180.479 16.6821 184.115 13.265C187.751 9.84784 192.384 7.52074 197.428 6.57795C202.471 5.63517 207.699 6.11904 212.45 7.96838C217.201 9.81772 221.261 12.9495 224.118 16.9676C226.975 20.9857 228.5 25.7098 228.5 30.5423C228.5 37.0226 225.761 43.2374 220.885 47.8197C216.009 52.4019 209.396 54.9762 202.5 54.9762Z" fill="white"/>
<path d="M197.69 29.8705C198.75 29.6681 199.699 29.1172 200.366 28.3168C201.033 27.5164 201.375 26.5188 201.33 25.503C201.33 22.4488 198.827 20.6162 195.025 20.6162H186.25V40.4687H195.025C199.25 40.316 202.5 38.2697 202.5 34.7268C202.53 34.1095 202.43 33.4928 202.203 32.9126C201.977 32.3325 201.629 31.8007 201.181 31.3484C200.733 30.8961 200.194 30.5324 199.594 30.2787C198.995 30.0249 198.347 29.8861 197.69 29.8705ZM190.345 23.4261H194.082C196.032 23.4261 197.17 24.4035 197.17 26.0222C197.17 27.6409 195.935 28.7405 193.107 28.7405H190.345V23.4261ZM193.595 37.3839H190.345V31.4587H194.342C196.78 31.4587 198.145 32.6193 198.145 34.513C198.145 36.4066 196.78 37.3839 193.465 37.3839H193.595ZM211.437 25.3503C210.452 25.2731 209.46 25.3972 208.531 25.714C207.601 26.0307 206.755 26.5327 206.052 27.1855C205.348 27.8382 204.802 28.6263 204.453 29.4957C204.104 30.3651 203.958 31.2952 204.027 32.2223V33.5967C203.947 34.5503 204.09 35.5087 204.445 36.4051C204.801 37.3015 205.36 38.1141 206.084 38.786C206.809 39.458 207.681 39.9732 208.639 40.2955C209.597 40.6178 210.619 40.7395 211.632 40.652C213.237 40.8311 214.855 40.4423 216.17 39.5614C217.486 38.6806 218.406 37.3708 218.75 35.8874H214.817C214.614 36.5227 214.173 37.0674 213.576 37.4211C212.978 37.7747 212.265 37.9134 211.567 37.8115C211.071 37.8232 210.577 37.7347 210.12 37.5519C209.662 37.3691 209.252 37.0963 208.916 36.7519C208.58 36.4075 208.327 35.9994 208.173 35.5553C208.02 35.1111 207.969 34.6411 208.025 34.177V33.7494H218.75V32.3139C218.827 31.389 218.691 30.4594 218.352 29.5881C218.013 28.7168 217.478 27.9241 216.785 27.2638C216.091 26.6034 215.255 26.0908 214.333 25.7607C213.41 25.4306 212.423 25.2906 211.437 25.3503ZM214.687 31.4587H208.122C208.082 31.0352 208.136 30.6082 208.281 30.2054C208.426 29.8025 208.659 29.4325 208.964 29.1191C209.27 28.8057 209.643 28.5558 210.057 28.3854C210.472 28.215 210.92 28.1279 211.372 28.1296C211.825 28.1279 212.273 28.215 212.688 28.3854C213.102 28.5558 213.475 28.8057 213.781 29.1191C214.086 29.4325 214.319 29.8025 214.464 30.2054C214.609 30.6082 214.663 31.0352 214.622 31.4587H214.687ZM206.562 21.9906H216.312V23.5177H206.562V21.9906Z" fill="white"/>
<path d="M287.5 0.939941C269.551 0.939941 255 14.614 255 31.4823C255 48.3505 269.551 62.0246 287.5 62.0246C305.449 62.0246 320 48.3505 320 31.4823C320 14.614 305.449 0.939941 287.5 0.939941ZM300.72 25.9592C300.734 26.2201 300.737 26.481 300.737 26.7355C300.737 34.6892 294.301 43.8551 282.527 43.8551C279.048 43.8605 275.641 42.9215 272.716 41.1508C273.214 41.2081 273.725 41.2304 274.243 41.2304C277.242 41.2304 280.001 40.2727 282.192 38.6565C280.857 38.6319 279.563 38.2165 278.492 37.4683C277.42 36.7201 276.623 35.6763 276.213 34.4824C277.172 34.6537 278.159 34.6178 279.101 34.3774C277.652 34.1021 276.349 33.3644 275.413 32.2893C274.477 31.2142 273.965 29.868 273.965 28.4789V28.4058C274.828 28.8544 275.817 29.128 276.866 29.1598C275.508 28.3101 274.547 27.0049 274.179 25.511C273.81 24.0172 274.063 22.4476 274.886 21.1233C276.494 22.9813 278.499 24.5013 280.772 25.5848C283.044 26.6683 285.534 27.2912 288.079 27.4131C287.755 26.1224 287.895 24.7674 288.475 23.5588C289.055 22.3501 290.045 21.3555 291.289 20.7297C292.532 20.1038 293.962 19.8817 295.354 20.0978C296.746 20.314 298.023 20.9564 298.987 21.9251C300.419 21.6587 301.793 21.1649 303.049 20.4648C302.572 21.8587 301.572 23.0423 300.236 23.7958C301.505 23.6521 302.744 23.3315 303.912 22.8445C303.054 24.0531 301.973 25.1079 300.72 25.9592Z" fill="white"/>
</svg>
