<svg width="834" height="327" viewBox="0 0 834 327" fill="none" xmlns="http://www.w3.org/2000/svg">
<g filter="url(#filter0_d_39_126)">
<path d="M2 32C2 15.4314 15.4315 2 32 2H802C818.569 2 832 15.4315 832 32V295C832 311.569 818.569 325 802 325H32C15.4314 325 2 311.569 2 295V32Z" fill="#1F1F1F"/>
<path d="M2 32C2 15.4314 15.4315 2 32 2H802C818.569 2 832 15.4315 832 32V295C832 311.569 818.569 325 802 325H32C15.4314 325 2 311.569 2 295V32Z" stroke="url(#paint0_linear_39_126)"/>
</g>
<defs>
<filter id="filter0_d_39_126" x="0.5" y="0.5" width="833" height="326" filterUnits="userSpaceOnUse" color-interpolation-filters="sRGB">
<feFlood flood-opacity="0" result="BackgroundImageFix"/>
<feColorMatrix in="SourceAlpha" type="matrix" values="0 0 0 0 0 0 0 0 0 0 0 0 0 0 0 0 0 0 127 0" result="hardAlpha"/>
<feOffset/>
<feGaussianBlur stdDeviation="0.5"/>
<feColorMatrix type="matrix" values="0 0 0 0 0 0 0 0 0 0 0 0 0 0 0 0 0 0 1 0"/>
<feBlend mode="normal" in2="BackgroundImageFix" result="effect1_dropShadow_39_126"/>
<feBlend mode="normal" in="SourceGraphic" in2="effect1_dropShadow_39_126" result="shape"/>
</filter>
<linearGradient id="paint0_linear_39_126" x1="417" y1="2" x2="417" y2="325" gradientUnits="userSpaceOnUse">
<stop stop-color="#BEBEBE"/>
<stop offset="1" stop-color="white" stop-opacity="0"/>
</linearGradient>
</defs>
</svg>
