<svg width="65" height="62" viewBox="0 0 65 62" fill="none" xmlns="http://www.w3.org/2000/svg">
<path d="M32.5 1.0523e-07C26.0721 1.0523e-07 19.7886 1.79128 14.444 5.14731C9.09938 8.50334 4.93378 13.2734 2.47393 18.8543C0.0140817 24.4352 -0.629527 30.5762 0.624493 36.5008C1.87851 42.4255 4.97384 47.8676 9.51904 52.139C14.0642 56.4104 19.8552 59.3193 26.1596 60.4978C32.464 61.6763 38.9986 61.0714 44.9372 58.7597C50.8758 56.4481 55.9516 52.5334 59.5228 47.5107C63.0939 42.4881 65 36.583 65 30.5423C65.0004 26.5313 64.16 22.5596 62.5268 18.8539C60.8937 15.1482 58.4997 11.7811 55.4818 8.94489C52.4638 6.10871 48.8809 3.85899 44.9376 2.32422C40.9944 0.789441 36.7681 -0.000332847 32.5 1.0523e-07ZM42.8334 46.2792C42.7118 46.5642 42.5267 46.8215 42.2906 47.0339C42.0544 47.2462 41.7727 47.4086 41.4644 47.5103C41.156 47.612 40.828 47.6505 40.5025 47.6233C40.177 47.5961 39.8614 47.5039 39.5769 47.3527L30.7542 40.9102L25.0917 45.8196C24.9603 45.9108 24.8066 45.9695 24.6447 45.9903C24.4829 46.0111 24.3181 45.9933 24.1654 45.9385L25.2509 36.8111L25.2857 36.837L25.3079 36.6568C25.3079 36.6568 41.1841 23.073 41.8309 22.4943C42.4857 21.917 42.2696 21.7918 42.2696 21.7918C42.3069 21.0877 41.0947 21.7918 41.0947 21.7918L20.059 34.5098L11.2987 31.706C11.2987 31.706 9.95317 31.2524 9.82642 30.2552C9.69317 29.2656 11.3425 28.7281 11.3425 28.7281L46.1728 15.7247C46.1728 15.7247 49.036 14.5258 49.036 16.5112L42.8334 46.2792Z" fill="white"/>
</svg>
