<svg width="629" height="624" viewBox="0 0 629 624" fill="none" xmlns="http://www.w3.org/2000/svg">
<path fill-rule="evenodd" clip-rule="evenodd" d="M297.384 24.58C363.703 27.8595 439.799 -4.41505 491.278 37.5244C542.694 79.4127 520.22 162.303 542.919 224.617C566.933 290.538 636.548 342.098 627.573 411.681C618.288 483.67 558.757 540.963 497.163 579.368C438.189 616.14 364.794 634.479 297.384 617.562C236.078 602.176 209.484 532.887 159.223 494.559C110.791 457.626 35.0208 453.226 9.4156 397.962C-16.6429 341.72 18.3124 278.517 31.014 217.847C45.6093 148.131 31.3883 59.4623 89.0393 17.6333C146.693 -24.1975 226.241 21.0619 297.384 24.58Z" fill="#C4C4C4"/>
</svg>
