<svg width="641" height="607" viewBox="0 0 641 607" fill="none" xmlns="http://www.w3.org/2000/svg">
<path fill-rule="evenodd" clip-rule="evenodd" d="M324.972 35.9418C397.596 27.9138 489.332 -31.6493 538.385 22.5034C591.295 80.9128 501.437 176.195 521.141 252.503C538.642 320.279 638.512 348.872 640.726 418.837C643.021 491.386 600.134 575.924 532.18 601.44C462.803 627.49 397.629 551.986 324.972 537.398C273.149 526.993 220.296 546.606 170.52 528.827C105.904 505.747 11.0738 489.422 0.746803 421.589C-10.1547 349.982 101.471 319.609 128.433 252.383C152.193 193.142 100.382 113.431 143.29 66.178C185.597 19.5866 262.419 42.8565 324.972 35.9418Z" fill="#C4C4C4"/>
</svg>
